<svg version="1.2" xmlns="http://www.w3.org/2000/svg" viewBox="0 0 1000 132" width="1000" height="132">
	<style>
		.s0 { fill: #ec1c24 } 
		.s1 { fill: #57585a } 
		.s2 { fill: #573f98 } 
		.s3 { fill: #7fc24a } 
	</style>
	<g id="&lt;Group&gt;">
		<g id="&lt;Group&gt;">
			<g id="&lt;Group&gt;">
				<path id="&lt;Path&gt;" class="s0" d="m21.78 87.68l10.89 10.88 32.66-32.65 32.66 32.65 10.89-10.88-43.55-43.55z"/>
				<path id="&lt;Path&gt;" class="s0" d="m65.33 0.59l-65.31 65.32 10.88 10.88 54.43-54.43 54.43 54.43 10.89-10.88z"/>
				<path id="&lt;Path&gt;" class="s0" d="m43.56 109.45l21.77 21.77 21.78-21.77-21.78-21.77z"/>
			</g>
			<g id="&lt;Group&gt;">
				<path id="&lt;Compound Path&gt;" fill-rule="evenodd" class="s1" d="m233.71 65.9c0 19.04-13.47 33.97-30.69 33.97-9.74 0-17.73-4.82-22.06-10.06v34.88h-11.12v-91.43h11.12v8.73c4.33-5.25 12.32-10.08 22.06-10.08 17.22 0 30.69 14.93 30.69 33.99zm-11.12 0c0-12.96-9.06-23.12-20.62-23.12-11.98 0-21.01 9.94-21.01 23.12 0 12.96 9.23 23.12 21.01 23.12 11.56 0 20.62-10.16 20.62-23.12z"/>
				<path id="&lt;Compound Path&gt;" fill-rule="evenodd" class="s1" d="m281.72 65.89c0-19.05 14.12-33.96 32.14-33.96 17.57 0 30.82 14.26 30.82 33.18 0 1.43-0.1 2.91-0.27 4.34l-0.13 0.96h-51.01c1.77 10.85 10.64 18.61 21.5 18.61 7.07 0 13.12-2.99 18.53-9.1l0.73-0.84 7.76 7.1-0.63 0.79c-3.84 4.82-12.41 12.9-26.65 12.9-18.08 0-32.79-15.24-32.79-33.98zm11.44-5.42h40.09c-1.87-11.12-9.21-17.95-19.39-17.95-10.08 0-18.78 7.63-20.7 17.95z"/>
				<path id="&lt;Path&gt;" class="s1" d="m438.79 59.98v38.58h11.13v-38.58c0-16.26-10.31-28.06-24.5-28.06-10.51 0-18.31 5.75-21.72 11.61-3.47-5.86-10.89-11.61-20.38-11.61-7.97 0-14.25 3.99-17.72 8.5v-7.18h-11.12v65.32h11.12v-36.35c0-11.62 6.54-19.43 16.27-19.43 8.87 0 14.83 6.91 14.83 17.2v38.58h11.12v-36.35c0-11.62 6.55-19.43 16.28-19.43 8.79 0 14.69 6.91 14.69 17.2z"/>
				<path id="&lt;Path&gt;" class="s1" d="m537.29 69.32c0 11.23-8.02 19.69-18.65 19.69-9.65 0-16.4-7.18-16.4-17.45v-38.32h-11.13v38.32c0 16.4 11.14 28.31 26.48 28.31 8.64 0 15.75-4.38 19.7-9.21v7.9h11.12v-65.32h-11.12z"/>
				<path id="&lt;Path&gt;" class="s1" d="m635.68 31.92c-10.51 0-18.31 5.75-21.72 11.61-3.47-5.86-10.89-11.61-20.38-11.61-7.97 0-14.25 3.99-17.72 8.5v-7.18h-11.12v65.32h11.12v-36.35c0-11.62 6.54-19.43 16.27-19.43 8.87 0 14.83 6.91 14.83 17.2v38.58h11.12v-36.35c0-11.62 6.55-19.43 16.28-19.43 8.79 0 14.69 6.91 14.69 17.2v38.58h11.13v-38.58c0-16.26-10.31-28.06-24.5-28.06z"/>
				<path id="&lt;Path&gt;" class="s1" d="m254.64 63.27c0-11.53 8.18-20.23 19.04-20.23h4.78v-11.11h-3.98c-9.54 0-16.28 4.92-19.84 9.1v-7.77h-11.12v65.29h11.12z"/>
				<path id="&lt;Path&gt;" class="s1" d="m464.96 98.55h11.13v-65.31h-11.13z"/>
				<path id="&lt;Path&gt;" class="s1" d="m470.53 20.47c4 0 7.14-3.08 7.14-7 0-3.93-3.14-7.01-7.14-7.01-3.87 0-7.01 3.14-7.01 7.01 0 3.86 3.14 7 7.01 7z"/>
			</g>
		</g>
		<g id="&lt;Group&gt;">
			<path id="&lt;Path&gt;" class="s2" d="m948.03 35.79c-4.83 0-8.76 3.99-8.76 8.89v20.52c0 8.48-5.41 14.79-12.58 14.79-7.18 0-12.59-6.31-12.59-14.79v-20.52c0-4.99-3.74-8.89-8.52-8.89-4.84 0-8.77 3.99-8.77 8.89v20.91c0 18.2 12.85 31.55 29.88 31.55 8.26 0 15.89-3.29 21.48-9.26 5.56-5.93 8.62-13.99 8.62-22.68v-20.52c0-4.9-3.93-8.89-8.76-8.89z"/>
			<path id="&lt;Path&gt;" class="s3" d="m993.08 129.22q-1.11 0.01-2.2-0.36l-23.64-6.07c-9.63 5.53-20.52 8.43-31.68 8.43h-80.32c-35.52 0-64.42-29.3-64.42-65.31 0-36.02 28.9-65.32 64.42-65.32h27.74c3.81 0 6.9 3.13 6.9 7 0 3.86-3.09 6.99-6.9 6.99h-27.74c-27.91 0-50.62 23.03-50.62 51.33 0 28.29 22.71 51.32 50.62 51.32h80.32c9.66 0 19.05-2.77 27.16-8.01 1.76-1.14 3.93-1.4 5.91-0.73l15.47 4.63-6.54-13.69c-0.66-2-0.4-4.21 0.72-5.99 5.17-8.22 7.9-17.74 7.9-27.53 0-28.3-22.71-51.33-50.62-51.33h-27.74c-3.81 0-6.9-3.13-6.9-6.99 0-3.87 3.09-7 6.9-7h27.74c35.52 0 64.42 29.3 64.42 65.32 0 11.31-2.86 22.35-8.32 32.12l7.96 21.96c0.84 2.52 0.2 5.3-1.66 7.18-1.31 1.34-3.08 2.05-4.88 2.05z"/>
			<path id="&lt;Path&gt;" class="s2" d="m879.19 73.33c-2.34 0-4.54 0.92-6.19 2.6-2.64 2.67-6.15 4.14-9.88 4.14-3.74 0-7.25-1.47-9.88-4.14-2.75-2.78-4.32-6.43-4.32-10.02 0-3.58 1.57-7.23 4.32-10.02 2.64-2.67 6.15-4.15 9.88-4.15 3.73 0 7.24 1.48 9.88 4.15 1.65 1.68 3.85 2.6 6.19 2.6 2.34 0 4.54-0.92 6.2-2.6 3.41-3.46 3.41-9.1 0-12.56-5.95-6.03-13.86-9.36-22.27-9.36-8.42 0-16.33 3.33-22.27 9.36-12.28 12.45-12.28 32.71 0 45.17 5.94 6.02 13.85 9.34 22.27 9.34 8.42 0 16.33-3.32 22.27-9.34 3.41-3.47 3.41-9.1 0-12.57-1.66-1.68-3.86-2.6-6.2-2.6z"/>
		</g>
		<g id="&lt;Group&gt;">
			<path id="&lt;Path&gt;" class="s1" d="m727.5 131.22h-4v-130.63h4z"/>
		</g>
	</g>
</svg>