<?xml version="1.0" encoding="UTF-8"?>
<svg id="Layer_1" xmlns="http://www.w3.org/2000/svg" viewBox="0 0 500 500">
  <defs>
    <style>
      .cls-1, .cls-2 {
        fill: #828386;
      }

      .cls-1, .cls-3 {
        fill-rule: evenodd;
      }

      .cls-4, .cls-3 {
        fill: #e32c2b;
      }
    </style>
  </defs>
  <path class="cls-1" d="M176.44,263.27c-6.76,0-12.06-5.83-12.06-13.27s5.19-13.27,12.06-13.27,11.84,5.83,11.84,13.27-5.2,13.27-11.84,13.27h0ZM177.04,230.49c-5.59,0-10.18,2.77-12.67,5.78v-5.01h-6.38v52.62h6.38v-20.15c2.49,3.01,7.07,5.78,12.67,5.78,9.88,0,17.62-8.57,17.62-19.51s-7.74-19.51-17.62-19.51Z"/>
  <path class="cls-1" d="M228.8,246.88c1.1-5.93,6.09-10.31,11.88-10.31s10.06,3.92,11.13,10.31h-23.01ZM240.68,230.49c-10.35,0-18.45,8.56-18.45,19.5s8.44,19.51,18.83,19.51c8.17,0,13.09-4.64,15.29-7.41l.36-.46-4.45-4.08-.42.48c-3.11,3.51-6.58,5.23-10.64,5.23-6.24,0-11.33-4.45-12.34-10.68h29.29l.07-.55c.1-.83.16-1.67.16-2.49,0-10.86-7.61-19.05-17.69-19.05Z"/>
  <path class="cls-1" d="M304.72,230.49c-6.03,0-10.51,3.3-12.47,6.67-1.99-3.37-6.25-6.67-11.7-6.67-4.58,0-8.18,2.29-10.17,4.88v-4.12h-6.38v37.5h6.38v-20.86c0-6.67,3.75-11.16,9.34-11.16,5.09,0,8.51,3.97,8.51,9.87v22.15h6.39v-20.86c0-6.67,3.76-11.16,9.34-11.16,5.05,0,8.44,3.97,8.44,9.87v22.15h6.39v-22.15c0-9.33-5.92-16.11-14.07-16.11Z"/>
  <path class="cls-1" d="M368.95,251.96c0,6.45-4.6,11.31-10.7,11.31-5.55,0-9.42-4.12-9.42-10.02v-22h-6.39v22c0,9.42,6.39,16.26,15.2,16.26,4.96,0,9.04-2.52,11.31-5.29v4.53h6.39v-37.5h-6.39v20.71Z"/>
  <path class="cls-1" d="M425.44,230.49c-6.03,0-10.51,3.3-12.47,6.67-1.99-3.37-6.25-6.67-11.7-6.67-4.58,0-8.18,2.29-10.17,4.88v-4.12h-6.39v37.5h6.39v-20.86c0-6.67,3.75-11.16,9.34-11.16,5.09,0,8.51,3.97,8.51,9.87v22.15h6.39v-20.86c0-6.67,3.75-11.16,9.34-11.16,5.05,0,8.44,3.97,8.44,9.87v22.15h6.39v-22.15c0-9.33-5.92-16.11-14.07-16.11Z"/>
  <path class="cls-1" d="M220.35,230.49v6.38h-2.74c-6.23,0-10.93,4.99-10.93,11.61v20.26h-6.38v-37.48h6.38v4.46c2.04-2.4,5.91-5.23,11.39-5.23h2.29Z"/>
  <rect class="cls-2" x="327.43" y="231.24" width="6.39" height="37.5"/>
  <path class="cls-1" d="M330.62,215.98c-2.22,0-4.02,1.8-4.02,4.02s1.81,4.02,4.02,4.02,4.1-1.77,4.1-4.02-1.8-4.02-4.1-4.02Z"/>
  <path class="cls-1" d="M176.44,263.27c-6.76,0-12.06-5.83-12.06-13.27s5.19-13.27,12.06-13.27,11.84,5.83,11.84,13.27-5.2,13.27-11.84,13.27h0ZM177.04,230.49c-5.59,0-10.18,2.77-12.67,5.78v-5.01h-6.38v52.62h6.38v-20.15c2.49,3.01,7.07,5.78,12.67,5.78,9.88,0,17.62-8.57,17.62-19.51s-7.74-19.51-17.62-19.51Z"/>
  <path class="cls-1" d="M228.8,246.88c1.1-5.93,6.09-10.31,11.88-10.31s10.06,3.92,11.13,10.31h-23.01ZM240.68,230.49c-10.35,0-18.45,8.56-18.45,19.5s8.44,19.51,18.83,19.51c8.17,0,13.09-4.64,15.29-7.41l.36-.46-4.45-4.08-.42.48c-3.11,3.51-6.58,5.23-10.64,5.23-6.24,0-11.33-4.45-12.34-10.68h29.29l.07-.55c.1-.83.16-1.67.16-2.49,0-10.86-7.61-19.05-17.69-19.05Z"/>
  <path class="cls-1" d="M304.72,230.49c-6.03,0-10.51,3.3-12.47,6.67-1.99-3.37-6.25-6.67-11.7-6.67-4.58,0-8.18,2.29-10.17,4.88v-4.12h-6.38v37.5h6.38v-20.86c0-6.67,3.75-11.16,9.34-11.16,5.09,0,8.51,3.97,8.51,9.87v22.15h6.39v-20.86c0-6.67,3.76-11.16,9.34-11.16,5.05,0,8.44,3.97,8.44,9.87v22.15h6.39v-22.15c0-9.33-5.92-16.11-14.07-16.11Z"/>
  <path class="cls-1" d="M368.95,251.96c0,6.45-4.6,11.31-10.7,11.31-5.55,0-9.42-4.12-9.42-10.02v-22h-6.39v22c0,9.42,6.39,16.26,15.2,16.26,4.96,0,9.04-2.52,11.31-5.29v4.53h6.39v-37.5h-6.39v20.71Z"/>
  <path class="cls-1" d="M425.44,230.49c-6.03,0-10.51,3.3-12.47,6.67-1.99-3.37-6.25-6.67-11.7-6.67-4.58,0-8.18,2.29-10.17,4.88v-4.12h-6.39v37.5h6.39v-20.86c0-6.67,3.75-11.16,9.34-11.16,5.09,0,8.51,3.97,8.51,9.87v22.15h6.39v-20.86c0-6.67,3.75-11.16,9.34-11.16,5.05,0,8.44,3.97,8.44,9.87v22.15h6.39v-22.15c0-9.33-5.92-16.11-14.07-16.11Z"/>
  <path class="cls-1" d="M220.35,230.49v6.38h-2.74c-6.23,0-10.93,4.99-10.93,11.61v20.26h-6.38v-37.48h6.38v4.46c2.04-2.4,5.91-5.23,11.39-5.23h2.29Z"/>
  <rect class="cls-2" x="327.43" y="231.24" width="6.39" height="37.5"/>
  <path class="cls-1" d="M330.62,215.98c-2.22,0-4.02,1.8-4.02,4.02s1.81,4.02,4.02,4.02,4.1-1.77,4.1-4.02-1.8-4.02-4.1-4.02Z"/>
  <g>
    <polygon class="cls-3" points="97.99 250 116.74 268.75 122.99 262.5 97.99 237.5 72.99 262.5 79.24 268.75 97.99 250"/>
    <polygon class="cls-3" points="97.99 225 129.24 256.25 135.49 250 97.99 212.5 60.49 250 66.74 256.25 97.99 225"/>
    <rect class="cls-4" x="89.16" y="266.16" width="17.68" height="17.68" transform="translate(-165.75 149.83) rotate(-45)"/>
  </g>
</svg>